<svg width="119" height="59" viewBox="0 0 119 59" fill="none" xmlns="http://www.w3.org/2000/svg">
<path d="M71.1807 37.251C71.6865 38.3665 72.1865 39.5871 72.6738 40.916L75.7666 49.3213C76.6653 51.8059 77.5108 53.4716 78.3037 54.3174C79.0966 55.1631 80.1278 55.5597 81.3965 55.5068C82.2422 55.5068 82.9819 55.3211 83.6162 54.9512C84.2506 54.5283 84.9911 53.8149 85.8369 52.8105L86.3125 53.4443C84.9909 55.1888 83.643 56.458 82.2686 57.251C80.947 57.9911 79.3347 58.3613 77.4316 58.3613C74.9471 58.3613 72.9383 57.7267 71.4053 56.458C69.9251 55.1364 68.6297 52.8896 67.5195 49.7178L64.3477 41.1543C63.8311 39.7081 63.2827 38.407 62.7031 37.251H71.1807ZM46.2686 49.5596C46.2686 51.4095 46.427 52.8102 46.7441 53.7617C47.1142 54.6604 47.8285 55.295 48.8857 55.665C49.9959 55.9822 51.6083 56.2203 53.7227 56.3789V57.251C52.6125 57.1452 51.0528 57.0928 49.0439 57.0928C47.088 57.0399 44.8411 57.0127 42.3037 57.0127C39.6606 57.0127 37.3612 57.0399 35.4053 57.0928C33.5025 57.0928 31.9696 57.1453 30.8066 57.251V56.3789C33.0267 56.2203 34.6392 55.9822 35.6436 55.665C36.7006 55.295 37.3879 54.634 37.7051 53.6826C38.0751 52.7311 38.2598 51.3567 38.2598 49.5596V37.251H46.2686V49.5596ZM53.4844 1.98242C51.4228 2.08815 49.8629 2.32625 48.8057 2.69629C47.8015 3.06636 47.1141 3.72731 46.7441 4.67871C46.427 5.57739 46.2686 6.95178 46.2686 8.80176V23.251H38.2598V8.80176C38.2598 6.95177 38.075 5.57739 37.7051 4.67871C37.3879 3.7273 36.7006 3.06636 35.6436 2.69629C34.5864 2.32627 32.9738 2.08816 30.8066 1.98242V1.11035C31.9696 1.16321 33.5025 1.2157 35.4053 1.26855C37.3612 1.32142 39.6606 1.34765 42.3037 1.34766C44.8411 1.34766 47.0618 1.32142 48.9648 1.26855C50.8678 1.2157 52.3743 1.16321 53.4844 1.11035V1.98242ZM77.5898 0C79.4929 0 81.0002 0.476196 82.1104 1.42773C83.2731 2.37923 83.8545 3.62144 83.8545 5.1543C83.8545 6.31725 83.4842 7.26872 82.7441 8.00879C82.0569 8.69594 81.0792 9.04002 79.8105 9.04004C78.8062 9.04004 77.9869 8.85438 77.3525 8.48438C76.7712 8.06155 76.2423 7.58613 75.7666 7.05762C75.2908 6.47612 74.7884 5.99993 74.2598 5.62988C73.7841 5.20708 73.2027 4.99616 72.5156 4.99609C71.8284 4.99609 71.1938 5.28667 70.6123 5.86816C70.0309 6.44963 69.3699 7.48006 68.6299 8.95996C67.9427 10.4401 67.0437 12.5812 65.9336 15.3828C65.1407 17.5502 64.3214 19.3743 63.4756 20.8545C62.9472 21.7462 62.4084 22.545 61.8594 23.251H60.8164C60.9647 23.0651 61.1124 22.8753 61.2559 22.6787C62.6832 20.6699 64.0039 17.9731 65.2197 14.5898C66.6469 10.8369 67.9425 7.92977 69.1055 5.86816C70.3213 3.75363 71.5905 2.24633 72.9121 1.34766C74.2864 0.44922 75.8457 5.50604e-05 77.5898 0Z" fill="white"/>
<path d="M6.70312 34.251L3.45312 29.9115H2.28977V34.251H1.14489V24.7964H2.28977V28.8959H2.78835L6.57386 24.7964H7.94034L4.1179 28.9513L8.0696 34.251H6.70312ZM11.4992 34.251V24.7964H14.6938C15.4355 24.7964 16.0418 24.9303 16.5127 25.1981C16.9866 25.4627 17.3375 25.8213 17.5652 26.2737C17.793 26.7261 17.9069 27.2309 17.9069 27.7879C17.9069 28.345 17.793 28.8512 17.5652 29.3067C17.3406 29.7622 16.9928 30.1254 16.5219 30.3962C16.051 30.664 15.4478 30.7979 14.7123 30.7979H12.4225V29.7822H14.6753C15.1831 29.7822 15.5909 29.6945 15.8987 29.5191C16.2065 29.3437 16.4296 29.1067 16.5681 28.8081C16.7096 28.5065 16.7804 28.1665 16.7804 27.7879C16.7804 27.4094 16.7096 27.0708 16.5681 26.7723C16.4296 26.4738 16.2049 26.2398 15.8941 26.0706C15.5832 25.8982 15.1708 25.8121 14.6569 25.8121H12.6441V34.251H11.4992ZM21.7011 34.251V24.7964H27.4071V25.8121H22.846V29.0067H27.1116V30.0223H22.846V33.2354H27.481V34.251H21.7011ZM31.4207 24.7964H32.7871L36.0002 32.6444H36.111L39.3241 24.7964H40.6906V34.251H39.6195V27.0677H39.5272L36.5727 34.251H35.5386L32.584 27.0677H32.4917V34.251H31.4207V24.7964ZM44.1236 34.251V33.1984H44.4006C44.7945 33.1984 45.1008 33.0722 45.3193 32.8199C45.5378 32.5675 45.6947 32.1597 45.7901 31.5965C45.8886 31.0333 45.9548 30.287 45.9887 29.3575L46.1548 24.7964H51.9162V34.251H50.7713V25.8121H47.2443L47.0966 29.5791C47.0597 30.5701 46.9689 31.4134 46.8242 32.1089C46.6796 32.8045 46.4257 33.3354 46.0625 33.7016C45.6994 34.0679 45.17 34.251 44.4744 34.251H44.1236ZM56.1537 34.251V24.7964H61.8596V25.8121H57.2986V29.0067H61.5642V30.0223H57.2986V33.2354H61.9335V34.251H56.1537ZM65.8732 34.251V24.7964H69.1786C69.8372 24.7964 70.3804 24.9103 70.8082 25.1381C71.236 25.3627 71.5545 25.6659 71.7638 26.0475C71.9731 26.426 72.0777 26.8461 72.0777 27.3078C72.0777 27.714 72.0054 28.0495 71.8608 28.3142C71.7192 28.5789 71.5315 28.7881 71.2976 28.942C71.0667 29.0959 70.8159 29.2098 70.5451 29.2836V29.376C70.8344 29.3944 71.1252 29.496 71.4176 29.6807C71.71 29.8653 71.9546 30.13 72.1516 30.4747C72.3486 30.8194 72.4471 31.241 72.4471 31.7396C72.4471 32.2136 72.3393 32.6398 72.1239 33.0184C71.9085 33.3969 71.5684 33.697 71.1037 33.9186C70.6389 34.1402 70.0342 34.251 69.2894 34.251H65.8732ZM67.0181 33.2354H69.2894C70.0373 33.2354 70.5682 33.0907 70.8821 32.8014C71.1991 32.509 71.3576 32.1551 71.3576 31.7396C71.3576 31.4195 71.276 31.1241 71.1129 30.8532C70.9498 30.5793 70.7174 30.3608 70.4158 30.1977C70.1142 30.0315 69.7572 29.9484 69.3448 29.9484H67.0181V33.2354ZM67.0181 28.9513H69.1417C69.4864 28.9513 69.7972 28.8836 70.0742 28.7481C70.3543 28.6127 70.5759 28.4219 70.739 28.1757C70.9052 27.9295 70.9883 27.6402 70.9883 27.3078C70.9883 26.8923 70.8436 26.5399 70.5543 26.2506C70.265 25.9582 69.8064 25.8121 69.1786 25.8121H67.0181V28.9513ZM83.8862 27.751H82.7414C82.6736 27.4217 82.5552 27.1324 82.3859 26.8831C82.2197 26.6338 82.0166 26.4245 81.7765 26.2552C81.5395 26.0829 81.2764 25.9536 80.9871 25.8675C80.6978 25.7813 80.3962 25.7382 80.0823 25.7382C79.5098 25.7382 78.9912 25.8828 78.5265 26.1721C78.0649 26.4614 77.6971 26.8877 77.4232 27.4509C77.1523 28.0141 77.0169 28.705 77.0169 29.5237C77.0169 30.3424 77.1523 31.0333 77.4232 31.5965C77.6971 32.1597 78.0649 32.586 78.5265 32.8753C78.9912 33.1646 79.5098 33.3092 80.0823 33.3092C80.3962 33.3092 80.6978 33.2661 80.9871 33.18C81.2764 33.0938 81.5395 32.9661 81.7765 32.7968C82.0166 32.6244 82.2197 32.4136 82.3859 32.1643C82.5552 31.912 82.6736 31.6227 82.7414 31.2964H83.8862C83.8001 31.7796 83.6431 32.212 83.4154 32.5937C83.1876 32.9753 82.9045 33.3 82.5659 33.5677C82.2274 33.8324 81.8473 34.034 81.4257 34.1725C81.0071 34.311 80.5593 34.3802 80.0823 34.3802C79.2759 34.3802 78.5588 34.1833 77.931 33.7893C77.3031 33.3954 76.8092 32.8353 76.4491 32.1089C76.089 31.3826 75.909 30.5209 75.909 29.5237C75.909 28.5265 76.089 27.6648 76.4491 26.9385C76.8092 26.2122 77.3031 25.652 77.931 25.2581C78.5588 24.8641 79.2759 24.6672 80.0823 24.6672C80.5593 24.6672 81.0071 24.7364 81.4257 24.8749C81.8473 25.0134 82.2274 25.2165 82.5659 25.4843C82.9045 25.749 83.1876 26.0721 83.4154 26.4537C83.6431 26.8323 83.8001 27.2647 83.8862 27.751ZM93.2445 34.251L89.9945 29.9115H88.8312V34.251H87.6863V24.7964H88.8312V28.8959H89.3298L93.1153 24.7964H94.4817L90.6593 28.9513L94.611 34.251H93.2445ZM98.0406 24.7964H99.167V32.2382H99.2593L104.43 24.7964H105.538V34.251H104.393V26.8277H104.301L99.1485 34.251H98.0406V24.7964ZM109.779 24.7964H110.905V32.2382H110.997L116.168 24.7964H117.276V34.251H116.131V26.8277H116.039L110.887 34.251H109.779V24.7964ZM114.432 22.4328H115.448C115.448 22.9314 115.275 23.3392 114.931 23.6562C114.586 23.9732 114.118 24.1317 113.527 24.1317C112.946 24.1317 112.482 23.9732 112.138 23.6562C111.796 23.3392 111.625 22.9314 111.625 22.4328H112.641C112.641 22.6729 112.707 22.8837 112.839 23.0653C112.975 23.2468 113.204 23.3376 113.527 23.3376C113.85 23.3376 114.081 23.2468 114.22 23.0653C114.361 22.8837 114.432 22.6729 114.432 22.4328Z" fill="white"/>
</svg>
