<svg width="22" height="20" viewBox="0 0 22 20" fill="none" xmlns="http://www.w3.org/2000/svg">
<path d="M11 7.5C16.5228 7.5 21 6.15685 21 4.5C21 2.84315 16.5228 1.5 11 1.5C5.47715 1.5 1 2.84315 1 4.5C1 6.15685 5.47715 7.5 11 7.5Z" stroke="black" stroke-width="1.5" stroke-linecap="round" stroke-linejoin="round"/>
<path d="M11 15.5C12.33 15.5 13.073 16.258 13.419 16.916C13.4993 17.0726 13.5204 17.2529 13.4783 17.4238C13.4363 17.5947 13.3339 17.7446 13.19 17.846C12.5417 18.2778 11.7789 18.5056 11 18.5C10.172 18.5 9.41 18.255 8.81 17.845C8.66614 17.7436 8.56374 17.5937 8.52166 17.4228C8.47958 17.2519 8.50066 17.0716 8.581 16.915C8.927 16.26 9.67 15.5 11 15.5ZM11 15.5V7.5" stroke="black" stroke-width="1.5" stroke-linecap="round" stroke-linejoin="round"/>
</svg>
