<svg width="20" height="19" viewBox="0 0 20 19" fill="none" xmlns="http://www.w3.org/2000/svg">
<path d="M8.46397 1.28205C8.64293 1.06735 8.86491 0.892551 9.11559 0.768918C9.36626 0.645284 9.64007 0.575566 9.91934 0.564259C10.1986 0.552953 10.4772 0.600308 10.737 0.703273C10.9969 0.806237 11.2322 0.962523 11.428 1.16205L11.536 1.28205L15.469 6.00005H18.454C18.6638 5.99961 18.8714 6.0435 19.0631 6.12885C19.2549 6.2142 19.4264 6.33908 19.5665 6.49533C19.7066 6.65157 19.8121 6.83565 19.8761 7.0355C19.9401 7.23536 19.9612 7.44648 19.938 7.65505L19.846 8.42105L19.746 9.16105L19.664 9.71505L19.569 10.3101L19.461 10.9351L19.339 11.5831L19.203 12.2441C19.131 12.5774 19.0536 12.9104 18.971 13.2431C18.7496 14.1211 18.4717 14.9839 18.139 15.8261L17.918 16.3661L17.704 16.8541L17.502 17.2881L17.408 17.4821L17.159 17.9721C16.839 18.5821 16.235 18.9421 15.596 18.9941L15.436 19.0001H4.55497C4.20537 19.0027 3.86163 18.9103 3.56045 18.7327C3.25928 18.5552 3.01198 18.2992 2.84497 17.9921L2.61297 17.5421L2.43297 17.1721L2.33797 16.9671L2.13797 16.5181C1.68127 15.4576 1.31074 14.362 1.02997 13.2421C0.975684 13.0246 0.923681 12.8066 0.873972 12.5881L0.731973 11.9401L0.604972 11.3061L0.492972 10.6931L0.392972 10.1061L0.305972 9.55205L0.231973 9.03905L0.141972 8.35605L0.0759724 7.80005L0.0589724 7.64705C0.0382869 7.45059 0.0568751 7.25198 0.113656 7.06276C0.170436 6.87355 0.264275 6.69752 0.389714 6.54491C0.515153 6.3923 0.669687 6.26615 0.844326 6.17382C1.01897 6.08148 1.21022 6.02479 1.40697 6.00705L1.54297 6.00005H4.53197L8.46397 1.28205ZM17.883 8.00005H2.11297L2.17497 8.48405L2.25097 9.03205L2.34297 9.63605L2.45097 10.2841C2.49097 10.5061 2.53297 10.7334 2.57697 10.9661L2.71997 11.6731C2.79597 12.0311 2.87997 12.3951 2.96997 12.7571C3.22375 13.7679 3.55816 14.7567 3.96997 15.7141L4.16597 16.1551L4.34797 16.5391L4.51097 16.8621L4.58297 17.0001H15.41L15.564 16.6971L15.741 16.3321L15.935 15.9091C16.302 15.0841 16.722 13.9911 17.03 12.7571C17.155 12.2571 17.266 11.7491 17.365 11.2501L17.505 10.5121L17.625 9.80305L17.678 9.46405L17.773 8.82705L17.85 8.25705L17.883 8.00005ZM7.98597 10.8361L8.48597 13.8361C8.52088 14.0937 8.45408 14.3548 8.29972 14.564C8.14536 14.7732 7.91558 14.9141 7.6591 14.9568C7.40263 14.9994 7.13962 14.9405 6.92585 14.7925C6.71207 14.6446 6.56434 14.4191 6.51397 14.1641L6.01397 11.1641C5.98804 11.0327 5.98874 10.8975 6.01602 10.7665C6.04331 10.6354 6.09663 10.5112 6.17282 10.4011C6.24901 10.2911 6.34652 10.1974 6.45957 10.1258C6.57262 10.0541 6.69891 10.0058 6.83095 9.98388C6.963 9.96192 7.09811 9.96669 7.22827 9.99791C7.35844 10.0291 7.48101 10.0862 7.58873 10.1656C7.69644 10.2451 7.7871 10.3454 7.85534 10.4606C7.92358 10.5757 7.968 10.7034 7.98597 10.8361ZM13.048 10.0001L13.164 10.0131C13.406 10.053 13.6249 10.1805 13.7791 10.3714C13.9332 10.5622 14.0118 10.803 14 11.0481L13.987 11.1641L13.487 14.1641C13.4446 14.4152 13.3079 14.6406 13.105 14.7945C12.902 14.9483 12.648 15.0189 12.3947 14.9918C12.1415 14.9648 11.9081 14.8422 11.7422 14.6489C11.5763 14.4557 11.4904 14.2065 11.502 13.9521L11.515 13.8361L12.015 10.8361C12.0549 10.5944 12.1821 10.3757 12.3725 10.2216C12.5629 10.0675 12.8033 9.9887 13.048 10.0001ZM9.99997 2.56205L7.13497 6.00005H12.865L9.99997 2.56205Z" fill="black"/>
</svg>
